<mxfile host="65bd71144e">
    <diagram id="TvCw0LTA8CI-RhWktugO" name="Page-1">
        <mxGraphModel dx="787" dy="-523" grid="1" gridSize="10" guides="1" tooltips="1" connect="1" arrows="1" fold="1" page="1" pageScale="1" pageWidth="850" pageHeight="1100" math="0" shadow="0">
            <root>
                <mxCell id="0"/>
                <mxCell id="1" parent="0"/>
                <mxCell id="119" value="" style="edgeStyle=none;html=1;entryX=0.5;entryY=0;entryDx=0;entryDy=0;exitX=0.5;exitY=1;exitDx=0;exitDy=0;" parent="1" source="151" target="118" edge="1">
                    <mxGeometry relative="1" as="geometry">
                        <Array as="points">
                            <mxPoint x="619" y="1230"/>
                        </Array>
                        <mxPoint x="620.3399999999999" y="1170.9750000000001" as="sourcePoint"/>
                    </mxGeometry>
                </mxCell>
                <mxCell id="120" style="edgeStyle=none;html=1;exitX=1;exitY=0.5;exitDx=0;exitDy=0;entryX=0.5;entryY=1;entryDx=0;entryDy=0;" parent="1" source="118" edge="1" target="152">
                    <mxGeometry relative="1" as="geometry">
                        <mxPoint x="766" y="1150" as="targetPoint"/>
                        <mxPoint x="705.06" y="1260" as="sourcePoint"/>
                        <Array as="points">
                            <mxPoint x="770" y="1250"/>
                        </Array>
                    </mxGeometry>
                </mxCell>
                <mxCell id="121" value="ВЫЙТИ" style="edgeLabel;html=1;align=center;verticalAlign=middle;resizable=0;points=[];" parent="120" vertex="1" connectable="0">
                    <mxGeometry x="-0.8023" relative="1" as="geometry">
                        <mxPoint y="-10" as="offset"/>
                    </mxGeometry>
                </mxCell>
                <mxCell id="123" value="" style="edgeStyle=none;html=1;exitX=0.5;exitY=1;exitDx=0;exitDy=0;" parent="1" source="118" target="122" edge="1">
                    <mxGeometry relative="1" as="geometry"/>
                </mxCell>
                <mxCell id="124" value="Стрелочка вправа" style="edgeLabel;html=1;align=center;verticalAlign=middle;resizable=0;points=[];" parent="123" vertex="1" connectable="0">
                    <mxGeometry x="-0.3028" y="-2" relative="1" as="geometry">
                        <mxPoint x="-4" y="16" as="offset"/>
                    </mxGeometry>
                </mxCell>
                <mxCell id="125" style="edgeStyle=none;html=1;exitX=0;exitY=1;exitDx=0;exitDy=0;entryX=0.5;entryY=0;entryDx=0;entryDy=0;" parent="1" source="118" target="126" edge="1">
                    <mxGeometry relative="1" as="geometry">
                        <mxPoint x="620" y="1390" as="targetPoint"/>
                    </mxGeometry>
                </mxCell>
                <mxCell id="128" value="Стрелочка слево" style="edgeLabel;html=1;align=center;verticalAlign=middle;resizable=0;points=[];" parent="125" vertex="1" connectable="0">
                    <mxGeometry x="-0.1136" y="3" relative="1" as="geometry">
                        <mxPoint x="-8" y="7" as="offset"/>
                    </mxGeometry>
                </mxCell>
                <mxCell id="131" style="edgeStyle=none;html=1;exitX=1;exitY=1;exitDx=0;exitDy=0;entryX=0.5;entryY=0;entryDx=0;entryDy=0;" parent="1" source="118" target="130" edge="1">
                    <mxGeometry relative="1" as="geometry"/>
                </mxCell>
                <mxCell id="132" value="ГОТОВО" style="edgeLabel;html=1;align=center;verticalAlign=middle;resizable=0;points=[];" parent="131" vertex="1" connectable="0">
                    <mxGeometry x="-0.0449" y="2" relative="1" as="geometry">
                        <mxPoint as="offset"/>
                    </mxGeometry>
                </mxCell>
                <mxCell id="136" value="ГОТОВО&lt;br&gt;возле&amp;nbsp;&lt;br&gt;ввода" style="edgeStyle=none;html=1;exitX=1;exitY=1;exitDx=0;exitDy=0;entryX=0;entryY=0;entryDx=0;entryDy=0;" parent="1" source="118" target="137" edge="1">
                    <mxGeometry relative="1" as="geometry">
                        <mxPoint x="700" y="1430" as="targetPoint"/>
                    </mxGeometry>
                </mxCell>
                <mxCell id="139" style="edgeStyle=none;html=1;exitX=1;exitY=1;exitDx=0;exitDy=0;entryX=1;entryY=0;entryDx=0;entryDy=0;" parent="1" source="118" target="138" edge="1">
                    <mxGeometry relative="1" as="geometry">
                        <Array as="points">
                            <mxPoint x="670" y="1450"/>
                        </Array>
                    </mxGeometry>
                </mxCell>
                <mxCell id="140" value="Поле ввода" style="edgeLabel;html=1;align=center;verticalAlign=middle;resizable=0;points=[];" parent="139" vertex="1" connectable="0">
                    <mxGeometry x="0.784" y="-2" relative="1" as="geometry">
                        <mxPoint x="5" y="-18" as="offset"/>
                    </mxGeometry>
                </mxCell>
                <mxCell id="118" value="Какую кнопку нажал пользователь" style="rhombus;whiteSpace=wrap;html=1;" parent="1" vertex="1">
                    <mxGeometry x="534.4399999999999" y="1210" width="170.62" height="80" as="geometry"/>
                </mxCell>
                <mxCell id="134" style="edgeStyle=none;html=1;exitX=0;exitY=1;exitDx=0;exitDy=0;" parent="1" source="122" edge="1">
                    <mxGeometry relative="1" as="geometry">
                        <Array as="points">
                            <mxPoint x="410" y="1410"/>
                            <mxPoint x="410" y="1310"/>
                            <mxPoint x="480.43" y="1310"/>
                            <mxPoint x="480" y="1190"/>
                        </Array>
                        <mxPoint x="620" y="1190" as="targetPoint"/>
                    </mxGeometry>
                </mxCell>
                <mxCell id="122" value="Переключить следующий желаемый скин" style="whiteSpace=wrap;html=1;" parent="1" vertex="1">
                    <mxGeometry x="548.76" y="1360" width="111.24" height="50" as="geometry"/>
                </mxCell>
                <mxCell id="135" style="edgeStyle=none;html=1;exitX=0;exitY=0;exitDx=0;exitDy=0;" parent="1" source="126" edge="1">
                    <mxGeometry relative="1" as="geometry">
                        <mxPoint x="431.57285714285723" y="1310" as="targetPoint"/>
                    </mxGeometry>
                </mxCell>
                <mxCell id="126" value="Переключить предыдущий желаемый скин" style="rounded=0;glass=0;whiteSpace=wrap;html=1;" parent="1" vertex="1">
                    <mxGeometry x="431.31" y="1340" width="110" height="50" as="geometry"/>
                </mxCell>
                <mxCell id="133" style="edgeStyle=none;html=1;exitX=1;exitY=0.5;exitDx=0;exitDy=0;" parent="1" source="130" edge="1">
                    <mxGeometry relative="1" as="geometry">
                        <mxPoint x="770" y="1240" as="targetPoint"/>
                        <Array as="points">
                            <mxPoint x="836" y="1240"/>
                        </Array>
                    </mxGeometry>
                </mxCell>
                <mxCell id="130" value="Выбрать новый скин как основной" style="rounded=0;whiteSpace=wrap;html=1;" parent="1" vertex="1">
                    <mxGeometry x="715.06" y="1335" width="120.62" height="55" as="geometry"/>
                </mxCell>
                <mxCell id="141" style="edgeStyle=none;html=1;exitX=0.5;exitY=1;exitDx=0;exitDy=0;" parent="1" source="137" edge="1">
                    <mxGeometry relative="1" as="geometry">
                        <mxPoint x="410" y="1390" as="targetPoint"/>
                        <Array as="points">
                            <mxPoint x="773" y="1520"/>
                            <mxPoint x="410" y="1520"/>
                        </Array>
                    </mxGeometry>
                </mxCell>
                <mxCell id="137" value="Изменить имя питомца" style="rounded=0;whiteSpace=wrap;html=1;" parent="1" vertex="1">
                    <mxGeometry x="715.06" y="1450" width="114.94" height="50" as="geometry"/>
                </mxCell>
                <mxCell id="142" style="edgeStyle=none;html=1;" parent="1" source="138" edge="1">
                    <mxGeometry relative="1" as="geometry">
                        <mxPoint x="410" y="1475" as="targetPoint"/>
                    </mxGeometry>
                </mxCell>
                <mxCell id="138" value="Приглашение к вводу имени питомца" style="shape=parallelogram;perimeter=parallelogramPerimeter;whiteSpace=wrap;html=1;fixedSize=1;" parent="1" vertex="1">
                    <mxGeometry x="470" y="1450" width="156.25" height="50" as="geometry"/>
                </mxCell>
                <mxCell id="151" value="Вход в сцену персонализации" style="ellipse;whiteSpace=wrap;html=1;" vertex="1" parent="1">
                    <mxGeometry x="559.75" y="1100" width="120" height="60" as="geometry"/>
                </mxCell>
                <mxCell id="152" value="Выход в игровую сцену" style="ellipse;whiteSpace=wrap;html=1;" vertex="1" parent="1">
                    <mxGeometry x="712.53" y="1100" width="120" height="60" as="geometry"/>
                </mxCell>
            </root>
        </mxGraphModel>
    </diagram>
</mxfile>